<svg xmlns="http://www.w3.org/2000/svg" xmlns:xlink="http://www.w3.org/1999/xlink" width="1368.993" height="769.309" viewBox="0 0 1368.993 769.309"><defs><style>.a{fill:url(#a);}.b{fill:url(#b);}.c{fill:url(#c);}.d,.i{fill:#cee0ff;}.e,.h{fill:#b9ceff;}.f,.g{fill:#5590ff;opacity:0.24;}.au,.f,.h,.i,.l,.m,.p,.s,.t,.u{stroke:rgba(0,0,0,0);}.j{fill:url(#d);}.k{fill:url(#e);}.l{fill:url(#f);}.m,.n{fill:#edf4ff;}.o{fill:url(#g);}.p{fill:url(#h);}.q{fill:url(#i);}.r{fill:url(#j);}.s{fill:url(#k);}.t{fill:#b9cfff;}.u{fill:url(#l);}.v{fill:url(#m);}.af,.w{fill:#dd512a;}.x{fill:url(#n);}.y{clip-path:url(#o);}.ad,.z{fill:#ffb399;}.af,.ak,.z{opacity:0.5;}.aa,.ag{fill:#40037a;}.aa{opacity:0.3;}.ab{fill:#ff703e;}.ac{fill:url(#p);}.ae{clip-path:url(#r);}.ag{opacity:0.2;}.ah{fill:url(#s);}.ai{clip-path:url(#t);}.aj{fill:#350f2e;}.al{fill:#aa3b21;}.am{fill:#fff;}.an{fill:#802a19;}.ao{fill:url(#u);}.ap{fill:url(#v);}.aq{fill:#766de8;}.ar,.au{fill:#387dff;}.as{fill:url(#w);}.at{fill:url(#x);}.av{fill:#f7ce05;}.aw{fill:url(#y);}.ax{fill:none;stroke:#ffb399;stroke-miterlimit:10;}</style><linearGradient id="a" x1="0.972" y1="0.279" x2="0.661" y2="0.5" gradientUnits="objectBoundingBox"><stop offset="0" stop-color="#ff7649"/><stop offset="1" stop-color="#b34957"/></linearGradient><linearGradient id="b" x1="-0.561" y1="0.418" x2="1.02" y2="0.418" gradientUnits="objectBoundingBox"><stop offset="0" stop-color="#ffa330"/><stop offset="1" stop-color="#e05c68"/></linearGradient><linearGradient id="c" x1="-2.429" y1="0.907" x2="-1.413" y2="0.907" xlink:href="#b"/><linearGradient id="d" x1="0.504" y1="1.211" x2="0.49" y2="-1.036" gradientUnits="objectBoundingBox"><stop offset="0" stop-color="#edf4ff"/><stop offset="0.218" stop-color="#e6efff"/><stop offset="0.529" stop-color="#d3e1ff"/><stop offset="0.849" stop-color="#b9ceff"/></linearGradient><linearGradient id="e" x1="0.5" y1="1.299" x2="0.501" y2="-1.663" gradientUnits="objectBoundingBox"><stop offset="0" stop-color="#edf4ff"/><stop offset="1" stop-color="#b9ceff"/></linearGradient><linearGradient id="f" x1="0.5" y1="0.148" x2="0.5" y2="1.381" xlink:href="#e"/><linearGradient id="g" x1="-0.174" y1="-0.209" x2="0.5" y2="1.276" xlink:href="#e"/><linearGradient id="h" x1="0.83" y1="-0.403" x2="0.125" y2="1.045" xlink:href="#e"/><linearGradient id="i" x1="0.5" y1="1.3" x2="0.501" y2="-1.673" xlink:href="#e"/><linearGradient id="j" x1="0.5" y1="1.302" x2="0.501" y2="-1.687" xlink:href="#e"/><linearGradient id="k" x1="0.639" y1="-0.525" x2="0.5" y2="1.286" xlink:href="#e"/><linearGradient id="l" x1="0.136" y1="0.058" x2="0.5" y2="1.128" xlink:href="#e"/><linearGradient id="m" x1="0.5" y1="1.278" x2="0.501" y2="-1.66" xlink:href="#e"/><linearGradient id="n" x1="0.833" y1="-0.108" x2="0.295" y2="0.38" xlink:href="#a"/><clipPath id="o"><path class="a" d="M975.687,516.74c-3.516-9.194-12.512-26.372-23.031-42.919,1.564.126,3.405.332,5.572.657-10.78-16.91-29.166-32.706-32.647-35.624a48.087,48.087,0,0,0-4.9-4.036c-11.406-8.04-20.217-4.507-28.265-1.621-1.015.364-2.328.917-3.877,1.624a49.747,49.747,0,0,1,1.845-7.116c-11.806,5.416-28.01,21.119-28.01,21.119a66.51,66.51,0,0,1,1.4-8.4c-19.869,13.253-35.766,30.234-37.512,33.723a41.841,41.841,0,0,0-5.906,6.359c-10.447,14.757-22.447,66.681-23.736,72.588-2.283,10.461-5.1,18.748,2.85,34.313,6.013,11.779,25.909,64.613-14.452,71.933-4.06.736-7.932,1.476-12.279,2.537-16.526,4.035-2.574,13.987-2.574,13.987l29.559,3.148,4.943,8.927s9.175,9.276,15.172,14.03,11.27,5.3,18.276,2.218c1.161-.51,2.432-1.149,3.792-1.9,9.906-4.517,32.388-15.46,43.631-26.5-5.7.24-7.11.124-7.11.124s22.318-12.359,28.6-19.649a59.842,59.842,0,0,1-7.749.469,80.678,80.678,0,0,0,7.3-7.961c4.823-6.467,5.485-13.12,1.977-23.976-5.3-16.4-19.387-43.807-31.783-62.257,7.31-6.851,23.572-23.259,23.572-23.259a14.38,14.38,0,0,0,3.467,1c-1.461,9.109-1.014,16.6.047,20.947,1.384,5.669,3.649,7.4,7.059,9.1s20.457,10.207,26.041,11.377c5.274,1.105,11.988.988,18.915-5.539s15.365-14.4,20.958-21.7C984,545.114,981.715,532.5,975.687,516.74Z" transform="translate(-764.663 -427.705)"/></clipPath><linearGradient id="p" x1="0" y1="0.5" x2="1" y2="0.5" xlink:href="#a"/><clipPath id="r"><path class="b" d="M725,676.561S704.7,739.633,727.134,779.6c2.044,2.76,8.226,2.8,11.668,1.443a81.963,81.963,0,0,1-2.629-19.934c16.238,2.181,28.432,2.089,37.077,2.28,1.333,6.877,3.357,13.07,6.08,17.208,2.2,3.346,10.765,3.337,13.046.764-3.971-25.437-3.833-48.79,5.251-74.836,9.584-27.485,5.072-44.616,5.072-44.616s-10.794-4.193-39.82-2.983C734.023,660.13,725,676.561,725,676.561Z" transform="translate(-716.579 -658.708)"/></clipPath><linearGradient id="s" x1="-0.036" y1="0.707" x2="0.965" y2="0.87" xlink:href="#b"/><clipPath id="t"><path class="c" d="M817.1,567.611c-13.093-3.718-19.888-12.377-17.879-34.94,2.323-26.086,4.39-101.384-36.719-150.529-3.851,2.386-4.808,4.409-4.808,4.409s18.86,38.622,9.285,118c-9.411-4.7-25.846-10.244-25.846-10.244s.516-63.367-33.967-102.448a11.779,11.779,0,0,0-4.638,3s16.2,36.251,7.639,109.708a21.751,21.751,0,0,0-16.645,36.339c-12.212-2.91-23.557-6.013-23.564-6.015a5.277,5.277,0,0,0-4.021,3.791s4.545,56.851,69.874,64.731c55.495,6.694,72.485-21.9,72.485-21.9s-6.407-.06-11.07-2.76C804.338,578.9,814.935,573.763,817.1,567.611Z" transform="translate(-665.94 -382.142)"/></clipPath><linearGradient id="u" x1="-18.452" y1="-7.146" x2="-12.519" y2="-7.099" gradientUnits="objectBoundingBox"><stop offset="0" stop-color="#ff7649"/><stop offset="0.651" stop-color="#b34957"/><stop offset="0.914" stop-color="#8b363b"/></linearGradient><linearGradient id="v" x1="-0.323" y1="0.904" x2="1.369" gradientUnits="objectBoundingBox"><stop offset="0" stop-color="#ff7649"/><stop offset="0.651" stop-color="#b34957"/><stop offset="0.914" stop-color="#8b363b"/><stop offset="1" stop-color="#8b363b"/></linearGradient><linearGradient id="w" x1="0.107" y1="1.108" x2="1.045" y2="0.381" gradientUnits="objectBoundingBox"><stop offset="0" stop-color="#242d47"/><stop offset="1" stop-color="#766de8" stop-opacity="0"/></linearGradient><linearGradient id="x" x1="0.793" y1="0.022" x2="0.257" y2="0.826" xlink:href="#w"/><linearGradient id="y" x1="0.234" y1="1" x2="1.187" y2="-0.202" xlink:href="#b"/></defs><g transform="translate(1.5 0.5)"><path class="d" d="M1101.418,449.43a8.907,8.907,0,0,0-5.181-1.433c-6.437,0-15.611,4.619-22.522,10.713-.292-8.674-1.839-17.319-9.673-17.319-5.234,0-12.263,3.86-17.918,9.008-.343-6.459-2.09-11.965-6.039-14.028-3.805-1.988-9.087-.476-14.409,2.672.092-.22.187-.437.273-.66,4.712-12.26,4.594-31.916-7.665-36.628-9.071-3.487-22.241,2.186-30.391,10.338,1.785-10.294,1.291-20.966-7.924-23.549-8.661-2.43-22.675,2.946-31.211,10.633-1.888-10.124-5.972-19.221-14.371-19.221-9.528,0-22.051,11.7-28.6,23.336-3.359-2.938-6.974-4.839-10.375-4.839-6.688,0-10.976,7.339-13.278,15.492-2.929-4.08-6.707-7.02-10.835-7.02a10.1,10.1,0,0,0-5.258,1.593c.61-10.5-3.163-22.539-11.588-25.962-5.818-2.363-12.7-.144-18.6,4.1-.471-7.888-3.08-15.094-9.144-17.269-5.495-1.97-12.787.562-19.222,4.963,2.383-16.268-1.246-33.021-15.4-36.012-22.918-4.843-40.755,16.631-46.582,34.03-7.819-8.985-26.368-15.048-36.385-12.89-12.1,2.606-7.2,16.218-4.549,28.345-8.87-3.752-19.312-5.233-25.178-2.128-9.539,5.047-3.608,20.416,1.628,30.773a45.325,45.325,0,0,0-18.638,0c5.236-10.357,11.167-25.727,1.629-30.773-5.867-3.1-16.309-1.624-25.179,2.128,2.654-12.128,7.546-25.74-4.549-28.345-10.016-2.158-28.565,3.9-36.385,12.89,0,0,6.583-32.121-16.162-37.721-27.575-6.789-45.82,39.7-45.82,39.7-6.435-4.4-13.727-6.933-19.222-4.963-6.064,2.175-8.673,9.381-9.144,17.269-5.9-4.243-12.784-6.462-18.6-4.1-8.424,3.423-12.2,15.466-11.588,25.962a10.1,10.1,0,0,0-5.258-1.593c-4.127,0-7.906,2.94-10.835,7.02-2.3-8.154-6.59-15.492-13.278-15.492-3.4,0-7.016,1.9-10.375,4.839-6.55-11.633-19.073-23.336-28.6-23.336-8.4,0-12.483,9.1-14.371,19.221-8.536-7.687-22.55-13.062-31.211-10.633-9.213,2.584-9.708,13.256-7.924,23.549-8.15-8.152-21.321-13.824-30.391-10.338-12.26,4.712-12.378,24.368-7.665,36.628.086.224.181.44.273.66-5.322-3.148-10.6-4.66-14.408-2.672-3.949,2.063-5.7,7.569-6.039,14.028-5.654-5.147-12.684-9.008-17.918-9.008-7.835,0-9.382,8.645-9.674,17.319C262.777,452.616,253.6,448,247.167,448c-9.777,0-10.118,10.649-9.979,20.951-10.7-11.818-36.633-20.558-49.146-15.311-13.826,5.8-6.257,26.568-.264,41.027-8.388-2.3-17.71-2.475-22.362,1.072-4.434,3.381-3.722,47.027-1.137,53.208h937.14Z" transform="translate(-55.738 -298.387)"/><path class="e" d="M1027.39,117.458s-1.375,380.956-1.375,600.9h52.89l-9.5-600.441Z" transform="translate(-199.946 -117.458)"/><path class="f" d="M511.971,481.484H0c1.272-3.567,2.263-6.659,3.138-9.386,1.671-5.212,2.878-8.975,4.757-12.144,34.8-58.836,70.363-118.228,108.727-181.571l.491-.814.1-.16c5.32-8.818,11.349-18.814,18.789-22.62,28.548-14.7,57.872-28.568,86.23-41.976,10.222-4.833,20.792-9.831,31.2-14.809,14.954-7.139,29.43-14.415,42.152-24.9a103,103,0,0,0,17.733-18.654,107.334,107.334,0,0,0,7.578-11.894,123.548,123.548,0,0,0,6.547-13.993A209.761,209.761,0,0,1,340.512,102H486.326C494.417,176.595,502.8,300.725,511.971,481.484Z" transform="translate(854.996 -101.959)"/><path class="g" d="M413.112,466.059H0L.135,193.373l182.027-.023s63.346,29.828,94.771,46.012c7.625,3.947,13.9,14.623,19.377,23.594q54.633,90.561,108.818,181.572C408,449.373,409.344,455.742,413.112,466.059Z" transform="translate(-0.103 -193.321)"/><path class="g" d="M492.974,520.536l-406.743.718q15.205-17.09,30.59-34.179c3.05-3.409,6.549-7.356,10.317-8.7,18.928-6.907,38.036-13.008,56.965-19.377,14.443-4.844,28.259-9.957,37.948-25.3,5.562-8.7,13.277-15.879,19.556-24.222,7.446-9.957,16.865-12.739,27.093-14.712,13.815-2.781,27.63-7.266,41.355-9.06a423.585,423.585,0,0,1,52.032-3.05c4.037,0,8.432,4.037,11.214,7.625,9.06,11.035,16.775,23.5,26.195,34,5.024,5.472,12.2,9.24,19.2,11.931,10.945,4.216,22.786,6.28,33.551,10.676,4.486,1.794,8.612,6.638,10.945,11.3,10.048,20.364,17.494,42.881,29.424,61.631A4.914,4.914,0,0,0,492.974,520.536Z" transform="translate(-16.899 -266.189)"/><path class="h" d="M60.016,642.906H0L3.2,311H57.8c.055,148.08.821,262.85,2.215,331.9Z" transform="translate(245.701 -310.959)"/><path class="i" d="M48.874,568.985h-.9c0-.539-.927-32.985-2.571-71.815-1.514-35.766-3.979-84.806-7.118-115.32A300.733,300.733,0,0,1,39.459,311h1.923a328.629,328.629,0,0,0-3.223,34.3,258.991,258.991,0,0,0,1.027,36.456c1.372,13.533,2.734,31.754,4.05,54.157,1.055,17.963,2.081,38.618,3.049,61.389,1.635,38.457,2.589,71.118,2.591,71.677Zm-37.589-.628h-.9c-.015-.252-1.416-49.334-1.54-107.2-.071-32.931.293-61.651,1.08-85.365.982-29.584,2.629-51.383,4.9-64.793h.837c-2.272,13.329-3.92,35.061-4.9,64.595C9.979,399.277,9.622,427.978,9.7,460.9c.134,55.486,1.51,106.157,1.584,107.453Zm-8.343-2.333h-.9c0-.038,0-.237,0-.566-.046-12.487-.161-57.132.274-107.366.27-31.16.7-58.675,1.287-81.778C4.328,347.7,5.287,325.726,6.456,311h.9c-1.169,14.671-2.13,36.6-2.854,65.165-.585,23.07-1.018,50.555-1.289,81.691C2.78,508.069,2.9,552.882,2.941,565.42c0,.356,0,.559,0,.6Z" transform="translate(245.897 -310.959)"/><path class="h" d="M61.455,642.906H1.439L4.359,311H58.943c.153,102.437.712,243.171,2.511,331.9Z" transform="translate(983.897 -310.959)"/><path class="i" d="M46.878,569.343h-.9c0-.536-.927-32.83-2.57-71.466-1.514-35.594-3.978-84.4-7.117-114.771A297.616,297.616,0,0,1,37.686,311h.89a296.209,296.209,0,0,0-1.386,72.016c1.372,13.472,2.734,31.607,4.049,53.9,1.055,17.875,2.08,38.43,3.049,61.093,1.635,38.272,2.589,70.772,2.59,71.329ZM9.38,568.8h-.9c-.015-.271-1.463-49.743-1.577-108.32-.064-33.154.324-61.955,1.153-85.6,1.035-29.5,2.762-50.995,5.135-63.882h.86c-2.368,12.767-4.091,34.19-5.12,63.676-.825,23.632-1.209,52.448-1.141,85.647.12,58.558,1.572,108.191,1.587,108.48ZM.947,566.383H.05c0-.038,0-.237,0-.566C0,553.3-.113,508.567.324,458.236c.271-31.216.705-58.771,1.291-81.9C2.34,347.691,3.3,325.709,4.474,311h.9c-1.173,14.64-2.136,36.564-2.862,65.162-.587,23.095-1.022,50.623-1.294,81.819C.784,508.291.9,553.211.945,565.78v.195c0,.235,0,.372,0,.407Z" transform="translate(987.438 -310.959)"/><g transform="translate(12.546 -310.553)"><path class="e" d="M45.3,162.138,43.877,416.706v15.879l-3.319.9a33.28,33.28,0,0,1-8.343,1.077,31.821,31.821,0,0,1-16.506-4.575l16.5-268.1Z" transform="translate(-15.709 148.656)"/></g><path class="h" d="M1483.3,113.433l0,0-10.458-21.471h8.456l2.99,5.775-.986,15.7Z" transform="translate(-1455.103 -91.959)"/><path class="e" d="M77.718,111.653s-5.525,280.161-5.525,603.9h64.8L125.529,111.642Z" transform="translate(-14.165 -111.654)"/><path class="e" d="M-160,778.438H1206V494.508l-1366,55.62Z" transform="translate(159 -287.975)"/><path class="j" d="M-161.114,592.948l.382,473.975h1366.9l-.382-426.617C618.943,476.659-161.114,592.948-161.114,592.948Z" transform="translate(160.114 -299.345)"/><path class="e" d="M303.063,667.756s-10.041-12-10.995-28.616" transform="translate(-56.991 -316.146)"/><path class="e" d="M305.476,668.8a49.843,49.843,0,0,1-5.372-24.3" transform="translate(-58.551 -317.191)"/><path class="e" d="M307.945,670.622s-3.112-5.372-2.259-16.768" transform="translate(-59.614 -319.012)"/><path class="e" d="M309.837,668.169s4.619-9.539,1.707-26.909" transform="translate(-60.452 -316.559)"/><path class="e" d="M311.52,669.4s6.526-7.681,5.724-21.838" transform="translate(-60.78 -317.786)"/><path class="e" d="M313.141,671.423a26.467,26.467,0,0,0,6.827-13.454" transform="translate(-61.095 -319.814)"/><path class="k" d="M225.576,679.079C248.018,651.04,262,660.3,279.356,663.322s28.863-7.083,45.769,1.657,24.628,14.1,24.628,14.1Z" transform="translate(-44.04 -320.096)"/><path class="l" d="M85.135,729.918H0L5,311H82c-.109,185.17.947,326.114,3.138,418.917Z" transform="translate(882.361 -310.959)"/><path class="m" d="M13.257,727.5H12c-.022-.516-2.129-55.582-2.209-120.8-.046-37.285.592-70.057,1.894-97.4,1.625-34.13,4.3-59.864,7.941-76.488,2.959-13.419,7.027-28.531,12.436-46.2,4.889-15.973,10.32-32.247,15.464-47.547l.013-.04.007-.02c3.089-9.25,6.284-18.815,9.262-28h1.323c-2.934,9.025-6.011,18.209-9.439,28.418-5.432,16.158-10.7,31.947-15.464,47.456-5.416,17.644-9.484,32.727-12.435,46.111-3.624,16.6-6.278,42.31-7.889,76.409-1.291,27.321-1.919,60.066-1.867,97.325.091,65.289,2.2,120.267,2.22,120.781ZM1.326,724.271H.069c0-.057,0-.306,0-.719v-.047C0,709.736-.162,660.443.532,604.281c.43-34.8,1.11-66.024,2.021-92.807,1.127-33.134,2.616-59.632,4.425-78.758C9.715,403.4,12.575,359.035,14.824,311h1.239c-2.244,48.149-5.1,92.544-7.83,121.8-1.789,19.1-3.265,45.57-4.387,78.664-.907,26.756-1.588,57.951-2.023,92.72-.7,56.129-.561,105.5-.5,119.292,0,.456,0,.723,0,.79ZM26.175,351.079h0c-.066-.022-.128-.039-.178-.053-.169-.046-.291-.08-.359-.216l-.024-.006c-.639-.159-1.829-.455-2.272-5.536-.54-6.2.173-17.727,2.12-34.269h1.266c-1.771,14.932-2.543,25.806-2.293,32.321.2,5.206,1.007,6.2,1.47,6.323a.31.31,0,0,0,.06.005c.688,0,4.691-1.863,15.939-38.65h1.4c-4.925,16.2-9.023,27.643-12.178,34.017a21.884,21.884,0,0,1-3.151,5.041A2.59,2.59,0,0,1,26.175,351.079Z" transform="translate(885.342 -310.959)"/><path class="n" d="M1163.124,474.834c8.612,83.789,13.726,187.673,13.726,188.659h1.255c0-1.077-5.2-105.05-13.725-188.749-9.33-90.876,12.918-160.4,26.195-192.7v-3.23C1177.388,309.859,1153.525,381,1163.124,474.834Z" transform="translate(-226.22 -245.964)"/><path class="o" d="M403.089,163.041l-5.358,418.407h85.135c-2.732-115.855-3.771-247.322-3.532-418.407Z" transform="translate(-77.571 -163.114)"/><path class="m" d="M1458.479,512.907h-1.256q.013-.279,0-6.024v-.025c-.031-17.468-.127-70.626.7-129.141,1.043-74.2,3.133-128.552,6.214-161.555,2.735-29.347,5.6-73.888,7.858-122.2h1.24c-2.254,48.434-5.113,93.007-7.841,122.293-1.79,19.138-3.266,45.885-4.388,79.5-.907,27.165-1.587,58.944-2.023,94.454-.7,57.24-.56,107.785-.5,121.913v.075c0,.411,0,.653,0,.716Zm65.308-.615h-1.255c0-.614-1.338-27.684-3.633-63.38-2.139-33.263-5.626-82.046-10.093-125.548a419.748,419.748,0,0,1,5.147-121.691,368.664,368.664,0,0,1,22.3-74.593v3.228c-4.026,9.82-7.729,20.253-11.007,31.009a396.8,396.8,0,0,0-10.569,43.473,417.884,417.884,0,0,0-4.62,118.484c2.441,24.025,6.168,65.31,10.059,125.56,2.352,36.414,3.666,62.8,3.667,63.457Zm-53.287-.807h-1.256c-.039-.491-.587-14.676-1.13-36.82-.488-19.933-1.078-50.737-1.113-84.288-.039-37.315.605-70.133,1.915-97.542,1.633-34.17,4.309-59.937,7.953-76.584,2.959-13.458,7.027-28.6,12.436-46.278,4.884-15.965,10.317-32.248,15.463-47.557a277.443,277.443,0,0,1,11.047-28.457h1.37a280.862,280.862,0,0,0-11.25,28.816c-11.524,34.278-21.577,64.993-27.9,93.747-3.624,16.623-6.278,42.363-7.889,76.5-1.291,27.358-1.919,60.146-1.867,97.454.09,64.792,2.2,120.473,2.221,121.006Z" transform="translate(-1134.103 -93.959)"/><path class="p" d="M131.99,786.261,0,783.838,40.229,311H145.505C131.477,337.99,121.3,354.238,121.2,354.4c1.023,66.931,3.022,173.981,6.737,303.869,2.278,79.643,4.047,127.794,4.056,127.992Z" transform="translate(76.867 -310.959)"/><path class="m" d="M78.5,781.416h0c0-.1-.024-.69-.059-1.758C77.2,742.2,75.478,701.92,73.587,666.249c-1.676-31.637-3.495-59.969-5.4-84.211-2.349-29.82-4.855-53.649-7.449-70.828-2.464-16.324-4.5-34.119-6.058-52.893-1.376-16.6-2.411-34.422-3.077-52.967-1.032-28.724-1.221-58.7-.6-94.35h1.435c-.624,35.6-.434,65.56.6,94.274.666,18.529,1.7,36.335,3.077,52.923,1.555,18.756,3.593,36.532,6.057,52.835,2.744,18.04,5.384,43.378,7.847,75.311,1.976,25.619,3.841,55.485,5.542,88.767,2.914,56.991,4.373,105.106,4.373,106.216l-1.435.09Zm15.609-.807c0-33.48-1.087-64.673-3.42-98.165-2.173-31.193-5.3-61.983-8.062-89.148l-.35-3.475C77.512,542.5,72.115,488.859,68,415.042c-.934-17.01-1.565-34.717-1.876-52.63-.288-16.572-.312-33.869-.07-51.412H67.06c-.247,17.538-.228,34.825.056,51.382.308,17.908.937,35.6,1.871,52.571,4.125,73.918,9.537,127.7,14.311,175.149l.312,3.1c3.067,30.187,5.964,58.7,8.1,89.115,2.351,33.559,3.428,64.763,3.387,98.2l-.986.09Zm-72.664-5.831h0l-1.075-.179c.012-.083.121-.677.318-1.756,5.769-31.52,9.782-56.885,12.133-72.613,2.937-19.649,5.228-37.216,6.808-52.211,1.937-18.376,2.822-33.045,2.629-43.6-.361-16.849-1.44-34.44-2.691-54.809l-.158-2.559c-2.393-38.86-5.372-87.222-3.88-151.565.642-28.173,2.508-58.177,5.254-84.486h.909c-1.927,18.422-4.389,48.033-5.175,84.486-.641,29.339-.465,57.755.538,86.872.852,24.711,2.141,45.869,3.5,67.159,1.3,19.831,2.414,37.644,2.782,54.812.211,10.575-.661,25.272-2.594,43.682-1.577,15.022-3.869,32.619-6.812,52.3-2.355,15.754-6.378,41.158-12.167,72.713-.206,1.121-.305,1.664-.318,1.749ZM1.076,769.395h0L0,769.036c11.165-42,18.986-93.594,22.618-149.2,1.624-24.863,2.363-49.746,2.2-73.956-.16-23.264-1.144-44.889-2.925-64.275-1.739-18.893-1.8-44.865-.189-77.194,1.364-27.338,3.893-58.767,7.516-93.413h1.05c-3.633,34.617-6.165,66.012-7.527,93.314-1.611,32.3-1.534,58.245.227,77.113,1.781,19.454,2.765,41.146,2.925,64.473.167,24.274-.573,49.214-2.2,74.128C20.063,675.741,12.241,727.391,1.076,769.395Z" transform="translate(101.358 -310.959)"/><path class="q" d="M57.184,835.019c40.1-50.1,163.752-33.011,193.961-17.394s27.931,17.394,27.931,17.394Z" transform="translate(-11.241 -347.805)"/><path class="r" d="M1047.533,765.89c6.29-12.9,120.533-31,141.2-18.106S1199.3,765.89,1199.3,765.89Z" transform="translate(-204.137 -336.445)"/><path class="s" d="M133.225,792.271H0L39.8,311h107c-15.373,30.167-26.753,48.421-26.866,48.6,1.861,122.4,5.354,233.355,7.958,304.878,2.776,76.257,5.261,127.435,5.334,127.79Z" transform="translate(993.25 -310.959)"/><path class="m" d="M78.5,788.772h0c0-.1-.022-.635-.054-1.612l-.006-.17c-1.238-37.677-2.961-78.167-4.851-114.013-1.677-31.791-3.495-60.258-5.4-84.61-2.349-29.956-4.854-53.892-7.447-71.145-2.537-16.895-4.621-35.348-6.2-54.847-1.385-17.162-2.412-35.6-3.053-54.817-1.276-38.288-.835-73.443-.392-96.556h1.429c-.44,23.044-.878,58.1.4,96.37.642,19.16,1.67,37.551,3.054,54.66,1.573,19.435,3.654,37.822,6.187,54.652,2.744,18.123,5.384,43.583,7.846,75.673,1.976,25.743,3.84,55.759,5.542,89.213,2.914,57.284,4.374,105.64,4.374,106.754l-1.434.448Zm15.609-.807c0-33.768-1.087-65.245-3.42-99.061-2.172-31.484-5.3-62.6-8.062-90.044l-.339-3.4C77.519,547.653,72.118,493.47,68,418.99c-.96-17.644-1.6-36.031-1.9-54.65-.279-17.174-.28-35.12,0-53.339h1.1c-.283,18.208-.287,36.141-.012,53.3.3,18.611.936,36.981,1.9,54.6C73.194,493.38,78.6,547.562,83.36,595.365l.339,3.4c3.07,30.53,5.971,59.366,8.1,89.978,2.351,33.872,3.428,65.371,3.386,99.129l-1.075.09Zm-72.664-6.01h0l-1.075-.18c.012-.084.126-.711.315-1.75,5.765-31.66,9.779-57.157,12.131-72.972,2.938-19.76,5.23-37.425,6.812-52.5,1.938-18.481,2.824-33.234,2.631-43.85-.361-16.977-1.441-34.635-2.692-55.082l-.155-2.532c-2.394-39.065-5.374-87.683-3.881-152.4C36.21,370.456,38.258,338.6,41.29,311h.935c-1.417,12.825-2.618,26.572-3.566,40.86-1.074,16.172-1.8,32.661-2.147,49.007-.641,29.5-.465,58.056.538,87.3.851,24.814,2.141,46.065,3.5,67.451,1.256,19.169,2.413,37.806,2.782,55.081.214,10.75-.681,25.731-2.658,44.525-1.609,15.29-3.942,33.194-6.934,53.212-3.376,22.587-7.663,48.256-12.072,72.279-.139.756-.215,1.171-.225,1.238ZM1.076,776.662h0L0,776.3c11.164-42.375,18.986-94.444,22.618-150.578,1.624-25.1,2.363-50.218,2.2-74.658-.16-23.486-1.144-45.316-2.925-64.885-1.764-19.358-1.8-46.055-.117-79.349C23.193,378.762,25.8,346.519,29.526,311h1.056c-3.736,35.5-6.351,67.729-7.771,95.783-1.685,33.286-1.633,59.969.155,79.308,1.781,19.614,2.765,41.494,2.925,65.031.167,24.492-.573,49.66-2.2,74.8C20.062,682.163,12.241,734.286,1.076,776.661Z" transform="translate(1016.477 -310.959)"/><path class="m" d="M123.618,344.8h0a73.287,73.287,0,0,1-20.939-9.254,98.129,98.129,0,0,1-19.139-16.3,151.638,151.638,0,0,1-17.323-23.222A242.573,242.573,0,0,1,50.728,266H97.315c10.248,7.469,18.372,8.585,22.3,8.585a12,12,0,0,0,2.567-.207L123.62,344.8Z" transform="translate(1072.007 -265.959)"/><g transform="translate(-4854.103 -44.959)"><path class="t" d="M1421.689,774.742s-15.842-18.908-17.3-45.049" transform="translate(4597.169 -236.068)"/><path class="t" d="M1441.668,787.143a78.526,78.526,0,0,1-8.491-38.288" transform="translate(4578.567 -248.469)"/><path class="t" d="M1456.436,808.917s-4.953-8.491-3.577-26.417" transform="translate(4565.961 -270.243)"/><path class="u" d="M167.524,821.537c-1.966,0-3.912-.007-5.784-.021h-1.165c-22.875-.2-39.657-1.435-49.879-3.678-.176-.044-.378-.089-.573-.132l-.007,0c-.2-.044-.4-.09-.586-.135a27.942,27.942,0,0,1-8.186-3.05c-1.9-1.214-2.8-2.6-2.669-4.126,0-.643,7.945-224.546,16.776-467.387l.217-6.067q.249-6.954.5-13.938H292.179c.167,172.088-.162,491.764-.366,492.057-6.021.461-11.09.974-16.457,1.518-9.232.936-18.773,1.9-34.224,2.7a5.138,5.138,0,0,0-1.165.089C211.969,820.806,187.6,821.537,167.524,821.537Z" transform="translate(5928 -278)"/><path class="m" d="M52.3,821.426H51.134c5.942-32.8,11.133-64.312,15.428-93.674,4.12-28.169,7.556-55.327,10.214-80.718,4.954-47.339,7.433-90.044,7.577-130.554.065-18.34-.341-35.948-1.241-53.829-.812-16.125-2.011-32.107-3.664-48.859C76.372,382.63,72.109,353.064,67.642,323H68.83c4.453,30.118,8.7,59.723,11.76,90.784,1.65,16.761,2.846,32.748,3.656,48.874.9,17.891,1.305,35.5,1.241,53.848-.142,40.538-2.617,83.249-7.564,130.576-2.655,25.394-6.088,52.548-10.2,80.707C63.429,757.137,58.241,788.641,52.3,821.426Zm78.227-2.153c4.024-20.078,6.449-46.721,7.207-79.187.357-15.278.335-31.811-.064-49.142-.389-16.895-1.14-34.669-2.232-52.829-1.075-17.881-2.485-36.22-4.192-54.507-1.7-18.218-3.7-36.445-5.943-54.175-2.262-17.876-4.78-35.316-7.486-51.835-2.758-16.839-5.726-32.816-8.821-47.486C99.713,386.046,93.637,352.009,89.876,323h1.188c3.754,28.925,9.822,62.932,19.1,107.023,3.1,14.647,6.063,30.6,8.821,47.427,2.706,16.5,5.224,33.929,7.486,51.793,2.243,17.72,4.243,35.939,5.943,54.15,1.706,18.28,3.116,36.616,4.191,54.5,1.092,18.158,1.842,35.935,2.232,52.837.4,17.337.421,33.879.064,49.167-.758,32.49-3.184,59.166-7.208,79.287h-.1a4.628,4.628,0,0,0-1.068.089h0ZM1.166,817.748h0c-.177-.044-.379-.089-.574-.133H.584c-.177-.039-.4-.088-.584-.135.534-39.513,7.251-87.873,14.362-139.072l.171-1.233C20.105,637.435,26.42,592.4,30.378,546.646c2.12-24.507,3.387-46.936,3.873-68.569.265-11.787.29-23.429.074-34.6-.227-11.777-.729-23.426-1.491-34.622-1.4-20.533-1.247-49.418.448-85.853h1.164C32.753,359.377,32.6,388.2,34,408.673c6.309,91.344-6.591,184.254-17.972,266.227l-.328,2.364c-3.32,23.607-7.083,50.365-9.823,74.682C4.446,764.64,3.376,775.864,2.6,786.26c-.86,11.591-1.33,21.891-1.438,31.487Zm177.8-2.7h0c-2.731-69.136-4.558-111.774-6.306-147.171-2.056-41.626-4-72.642-6.128-97.609-2.216-26.028-4.682-46.253-7.76-63.648a323.266,323.266,0,0,0-11.2-45.29c-4.269-13.012-9.109-27.759-13.378-44.686-2.214-8.778-4.139-17.555-5.885-26.83-1.942-10.317-3.623-21.022-5.137-32.726-1.583-12.28-2.881-23.75-3.858-34.09h1.113c.969,10.253,2.254,21.632,3.821,33.82,1.469,11.477,3.116,22.019,5.034,32.23,1.715,9.129,3.614,17.8,5.806,26.524,4.081,16.236,8.457,29.784,13.089,44.127l.382,1.182a329.624,329.624,0,0,1,11.123,45.371c3.075,17.461,5.54,37.717,7.758,63.746,4.417,51.821,7.774,126.071,12.423,244.96h-.006a3.3,3.3,0,0,0-.442.043A3.426,3.426,0,0,1,178.968,815.05Zm-.626-457.511a22.723,22.723,0,0,1-11.067-2.871,32.312,32.312,0,0,1-9.655-8.522,54.51,54.51,0,0,1-6.137-10.282A91.19,91.19,0,0,1,146.7,323h1.139a89.557,89.557,0,0,0,4.661,12.395,54.021,54.021,0,0,0,5.931,9.943c5.641,7.285,12.345,10.979,19.926,10.979a24.822,24.822,0,0,0,3.219-.215l.089,1.166A13.52,13.52,0,0,1,178.342,357.539Z" transform="translate(6037.439 -278)"/></g><path class="e" d="M1131.248,920.405c15.384,1.557,17.875,7.224-.436,5.169C1112.438,923.581,1131.248,920.405,1131.248,920.405Z" transform="translate(-134.892 -374.194)"/><path class="h" d="M1131.248,920.405c15.384,1.557,17.875,7.224-.436,5.169C1112.438,923.581,1131.248,920.405,1131.248,920.405Z" transform="translate(-785.892 -352.194)"/><path class="h" d="M1250.01,907.147c15.384,1.557,17.875,7.224-.436,5.169C1231.2,910.261,1250.01,907.147,1250.01,907.147Z" transform="translate(-934.261 -366.348)"/><path class="h" d="M1375.9,909.487c15.384,1.557,17.875,7.224-.435,5.169C1357.093,912.663,1375.9,909.487,1375.9,909.487Z" transform="translate(-989.775 -367.379)"/><path class="h" d="M1199.452,932.1c15.384,1.557,17.875,7.224-.436,5.169S1199.452,932.1,1199.452,932.1Z" transform="translate(-896.979 -353.352)"/><path class="h" d="M1311.619,923.747c15.384,1.557,17.875,7.224-.436,5.169C1292.81,926.923,1311.619,923.747,1311.619,923.747Z" transform="translate(-961.429 -373.668)"/><path class="h" d="M1434.615,923.636c15.384,1.557,17.875,7.224-.436,5.169C1415.806,926.75,1434.615,923.636,1434.615,923.636Z" transform="translate(-1015.666 -373.619)"/><path class="e" d="M1250.01,907.147c15.384,1.557,17.875,7.224-.436,5.169C1231.2,910.261,1250.01,907.147,1250.01,907.147Z" transform="translate(-187.261 -368.348)"/><path class="e" d="M1375.9,909.487c15.384,1.557,17.875,7.224-.435,5.169C1357.093,912.663,1375.9,909.487,1375.9,909.487Z" transform="translate(-242.775 -369.379)"/><path class="e" d="M1199.452,932.1c15.384,1.557,17.875,7.224-.436,5.169S1199.452,932.1,1199.452,932.1Z" transform="translate(-164.979 -379.352)"/><path class="e" d="M1311.619,923.747c15.384,1.557,17.875,7.224-.436,5.169C1292.81,926.923,1311.619,923.747,1311.619,923.747Z" transform="translate(-214.429 -375.668)"/><path class="e" d="M1434.615,923.636c15.384,1.557,17.875,7.224-.436,5.169C1415.806,926.75,1434.615,923.636,1434.615,923.636Z" transform="translate(-268.666 -375.619)"/><path class="v" d="M1199.52,839.48c3.765-28.806,45.233-9.707,77.115-14,38.919-5.246,69.191-9.775,80.549-2.688,20.661,12.892,10.569,18.106,10.569,18.106Z" transform="translate(-233.741 -351.206)"/><path class="w" d="M900.737,433.134" transform="translate(-146.708 -227.532)"/><g transform="translate(-4854.103 -48.959)"><path class="e" d="M733.677,834.459a1.728,1.728,0,0,0,.58,3.349H842.633c2.728,0,3.424-2.337,0-2.846C795.125,827.9,749.134,827.194,733.677,834.459Z" transform="translate(4760.06 -306.643)"/><path class="e" d="M906.175,840.706h7.033a.75.75,0,0,0,.75-.75h0a.747.747,0,0,0-.66-.745,71.326,71.326,0,0,0-7.831-.628C903.886,838.583,903.345,840.706,906.175,840.706Z" transform="translate(4706.321 -309.54)"/><g transform="translate(5514.669 246.831)"><path class="x" d="M975.687,516.74c-3.516-9.194-12.512-26.372-23.031-42.919,1.564.126,3.405.332,5.572.657-10.78-16.91-29.166-32.706-32.647-35.624a48.087,48.087,0,0,0-4.9-4.036c-11.406-8.04-20.217-4.507-28.265-1.621-1.015.364-2.328.917-3.877,1.624a49.747,49.747,0,0,1,1.845-7.116c-11.806,5.416-28.01,21.119-28.01,21.119a66.51,66.51,0,0,1,1.4-8.4c-19.869,13.253-35.766,30.234-37.512,33.723a41.841,41.841,0,0,0-5.906,6.359c-10.447,14.757-22.447,66.681-23.736,72.588-2.283,10.461-5.1,18.748,2.85,34.313,6.013,11.779,25.909,64.613-14.452,71.933-4.06.736-7.932,1.476-12.279,2.537-16.526,4.035-2.574,13.987-2.574,13.987l29.559,3.148,4.943,8.927s9.175,9.276,15.172,14.03,11.27,5.3,18.276,2.218c1.161-.51,2.432-1.149,3.792-1.9,9.906-4.517,32.388-15.46,43.631-26.5-5.7.24-7.11.124-7.11.124s22.318-12.359,28.6-19.649a59.842,59.842,0,0,1-7.749.469,80.678,80.678,0,0,0,7.3-7.961c4.823-6.467,5.485-13.12,1.977-23.976-5.3-16.4-19.387-43.807-31.783-62.257,7.31-6.851,23.572-23.259,23.572-23.259a14.38,14.38,0,0,0,3.467,1c-1.461,9.109-1.014,16.6.047,20.947,1.384,5.669,3.649,7.4,7.059,9.1s20.457,10.207,26.041,11.377c5.274,1.105,11.988.988,18.915-5.539s15.365-14.4,20.958-21.7C984,545.114,981.715,532.5,975.687,516.74Z" transform="translate(-764.663 -427.705)"/><g class="y"><path class="z" d="M962.828,566.462l17.03,4.3a2.8,2.8,0,0,0,3.475-2.97l-1.739-19.06a3.922,3.922,0,0,1,4.93-4.142l16.011,4.336a4.175,4.175,0,0,0,5.258-3.767l1.755-27.791a4.471,4.471,0,0,1,4.067-4.171l16.916-1.5,19.526,21.489-1.941,66.576-60.971,24.79-29.53-37.933Z" transform="translate(-825.086 -454.008)"/><path class="aa" d="M924.346,617.421c-.7-.058-16.888-27.661-16.888-27.661s19.977-1.192,29.922,15.957c6.29,10.846,2.363,14.394,2.363,14.394Z" transform="translate(-809.379 -478.447)"/><path class="aa" d="M813.011,752.024s7.878,8.317,15.281,4.1c14.154-8.062,30.762-18.886,36.115-24.71,10.92-11.878,8.557-26.273,7.2-35.614-1.43-9.827-7.9-24.79-7.9-24.79l-4.282,8.876a134.351,134.351,0,0,0-12.954-32.306c-2.616-4.61-19.459-49.281-19.459-49.281l-22.7,86.981Z" transform="translate(-777.08 -481.127)"/></g></g><path class="ab" d="M893.675,545.385a14.068,14.068,0,0,0-3.888,3.364c-1.016,1.661.054,1.867,1.08,1.441a13.8,13.8,0,0,0,3.621-2.712C896.2,545.741,895.822,544.227,893.675,545.385Z" transform="translate(4710.953 -217.598)"/><path class="ab" d="M912.482,624.824a14.538,14.538,0,0,0-2.706-4.57c-1.5-1.339-1.909-.288-1.664.834a14.27,14.27,0,0,0,2.095,4.179C911.656,627.33,913.266,627.22,912.482,624.824Z" transform="translate(4705.106 -240.974)"/><path class="ab" d="M935.788,668.092a14.55,14.55,0,0,0-2.706-4.57c-1.5-1.338-1.909-.288-1.664.834a14.237,14.237,0,0,0,2.094,4.18C934.962,670.6,936.573,670.488,935.788,668.092Z" transform="translate(4697.808 -254.523)"/><path class="ab" d="M952.733,712.015a13.737,13.737,0,0,0-2.065-4.57c-1.272-1.412-1.763-.468-1.649.609a13.477,13.477,0,0,0,1.532,4.14C951.7,714.281,953.22,714.344,952.733,712.015Z" transform="translate(4692.28 -268.251)"/><path class="ab" d="M928.252,695.525a13.737,13.737,0,0,0-2.065-4.57c-1.272-1.412-1.763-.468-1.648.609a13.472,13.472,0,0,0,1.532,4.14C927.217,697.79,928.739,697.854,928.252,695.525Z" transform="translate(4699.946 -263.087)"/><path class="ab" d="M927.576,472.726a14.054,14.054,0,0,0-3.888,3.363c-1.016,1.661.054,1.868,1.08,1.442a13.812,13.812,0,0,0,3.621-2.713C930.1,473.082,929.723,471.567,927.576,472.726Z" transform="translate(4700.336 -194.845)"/><path class="ab" d="M886.683,501.619a12.45,12.45,0,0,0-3.44,2.975c-.9,1.471.048,1.653.955,1.275a12.214,12.214,0,0,0,3.2-2.4C888.92,501.934,888.583,500.594,886.683,501.619Z" transform="translate(4712.987 -203.907)"/><path class="ab" d="M916.035,506.532a13.943,13.943,0,0,0-4.054,3.091c-1.108,1.583-.061,1.852.981,1.493a13.69,13.69,0,0,0,3.75-2.464C918.516,507.039,918.231,505.517,916.035,506.532Z" transform="translate(4704.022 -205.456)"/><path class="ab" d="M950.6,513.526a13.921,13.921,0,0,0-4.045,3.084c-1.105,1.579-.06,1.848.979,1.49a13.661,13.661,0,0,0,3.742-2.459C953.078,514.031,952.794,512.512,950.6,513.526Z" transform="translate(4693.194 -207.646)"/><path class="ab" d="M966.341,479.347a15.451,15.451,0,0,0-4.368-3.572c-1.988-.786-2.01.409-1.356,1.439a15.162,15.162,0,0,0,3.614,3.406C966.431,482.149,968,481.452,966.341,479.347Z" transform="translate(4688.764 -195.847)"/><path class="ab" d="M1006.56,493a15.407,15.407,0,0,0-4.368-3.572c-1.988-.787-2.01.409-1.356,1.438a15.151,15.151,0,0,0,3.615,3.406C1006.65,495.8,1008.216,495.105,1006.56,493Z" transform="translate(4676.169 -200.123)"/><path class="ab" d="M988.652,459.481a15.45,15.45,0,0,0-4.368-3.572c-1.988-.787-2.01.409-1.356,1.439a15.145,15.145,0,0,0,3.614,3.405C988.742,462.282,990.309,461.586,988.652,459.481Z" transform="translate(4681.777 -189.626)"/><path class="ac" d="M701.752,715.44c-19,3.743-32.419.227-41.348-4.025-.4-.185-.783-.378-1.161-.563-.563-.282-1.106-.563-1.628-.852-1.442-.783-2.741-1.566-3.9-2.315v-.007l-2.169-9.42a2.594,2.594,0,0,1,3.719-2.887l.037.019c-.137-2.459.247-4.217.673-4.753,1.909-.151,4.018,2.837,4.7,5.172.934.22,1.868.419,2.8.591a.135.135,0,0,0,.048.007c.206.041.412.082.611.117,20.976,3.647,41.712-4.506,41.712-4.506S713.16,699.168,701.752,715.44Z" transform="translate(4785.452 -263.21)"/><path class="ad" d="M664.14,696.51v.014c-1.058,3.592-2.706,9.472-3.736,14.891-.4-.185-.783-.378-1.161-.563-.563-.282-1.106-.563-1.628-.852-1.442-.783-2.741-1.566-3.9-2.315v-.007l-2.169-9.42a2.594,2.594,0,0,1,3.719-2.887l.037.019c-.137-2.459.247-4.217.673-4.753,1.909-.151,4.018,2.837,4.7,5.172.975.24,1.909.44,2.8.591a.135.135,0,0,0,.048.007C663.735,696.448,663.941,696.483,664.14,696.51Z" transform="translate(4785.452 -263.21)"/><path class="b" d="M725,676.561S704.7,739.633,727.134,779.6c2.044,2.76,8.226,2.8,11.668,1.443a81.963,81.963,0,0,1-2.629-19.934c16.238,2.181,28.432,2.089,37.077,2.28,1.333,6.877,3.357,13.07,6.08,17.208,2.2,3.346,10.765,3.337,13.046.764-3.971-25.437-3.833-48.79,5.251-74.836,9.584-27.485,5.072-44.616,5.072-44.616s-10.794-4.193-39.82-2.983C734.023,660.13,725,676.561,725,676.561Z" transform="translate(4765.064 -253.212)"/><g class="ae" transform="translate(5481.644 405.495)"><path class="af" d="M704.065,716.338s45.965,9.2,63.3-18.857c12.765-20.658-52.163-6.49-52.163-6.49Z" transform="translate(-712.66 -667.333)"/><path class="ag" d="M827.8,753.642s-15.72-13.144-12.847-34.419c1.859-13.766,14.407,2.833,14.407,2.833Z" transform="translate(-747.276 -675.948)"/><path class="ad" d="M744.869,790.582a64.44,64.44,0,0,1-1.248-21.3c1.467-15.789,6.995-21.251,14.554-21.893,13.165-1.118,18.467,13.16,19.781,23.47,1.561,12.264,4.653,26.128,4.653,26.128Z" transform="translate(-724.942 -686.459)"/></g><g transform="translate(5446.862 215.536)"><path class="ah" d="M817.1,567.611c-13.093-3.718-19.888-12.377-17.879-34.94,2.323-26.086,4.39-101.384-36.719-150.529-3.851,2.386-4.808,4.409-4.808,4.409s18.86,38.622,9.285,118c-9.411-4.7-25.846-10.244-25.846-10.244s.516-63.367-33.967-102.448a11.779,11.779,0,0,0-4.638,3s16.2,36.251,7.639,109.708a21.751,21.751,0,0,0-16.645,36.339c-12.212-2.91-23.557-6.013-23.564-6.015a5.277,5.277,0,0,0-4.021,3.791s4.545,56.851,69.874,64.731c55.495,6.694,72.485-21.9,72.485-21.9s-6.407-.06-11.07-2.76C804.338,578.9,814.935,573.763,817.1,567.611Z" transform="translate(-665.94 -382.142)"/><g class="ai"><path class="aj" d="M646.166,620.661s24.5,3.668,35.642-17.794c-3.258-2.531-18.373-7.2-18.373-7.2l-7.593,9.774Z" transform="translate(-659.748 -449.006)"/><path class="af" d="M760,530.377l15.733,5.461,11.032-26.464S765.1,511.75,760,530.377Z" transform="translate(-695.395 -421.985)"/></g></g><path class="aj" d="M767.35,356.527s16.823,14.145,22.1,17.633a51.534,51.534,0,0,0,5.425-3.622,167.758,167.758,0,0,0-7.317-27.964A55.536,55.536,0,0,0,767.35,356.527Z" transform="translate(4749.166 -154.215)"/><path class="aj" d="M686.785,370s16.146,13.326,22.807,17.717a37.372,37.372,0,0,1,5.468-2.913,216.019,216.019,0,0,0-8.6-30.247A88.894,88.894,0,0,0,686.785,370Z" transform="translate(4774.395 -157.966)"/><g class="ak" transform="translate(5469.665 388.201)"><circle class="al" cx="1.447" cy="1.447" r="1.447"/><circle class="al" cx="1.447" cy="1.447" r="1.447" transform="translate(4.569 10.464)"/><circle class="al" cx="1.447" cy="1.447" r="1.447" transform="translate(12.506 2.675)"/></g><circle class="z" cx="8.844" cy="8.844" r="8.844" transform="translate(5539.544 394.625)"/><g transform="translate(5472.013 341.26)"><g transform="translate(54.042 6.902)"><path class="am" d="M816.829,595.364a17.866,17.866,0,1,1-15.46-19.984A17.776,17.776,0,0,1,816.829,595.364Z" transform="translate(-781.24 -575.235)"/><circle class="aj" cx="4.983" cy="4.983" r="4.983" transform="translate(13.074 12.555)"/></g><path class="am" d="M738.148,585.315a17.866,17.866,0,1,1-15.46-19.984A17.809,17.809,0,0,1,738.148,585.315Z" transform="translate(-702.558 -565.186)"/><circle class="aj" cx="4.983" cy="4.983" r="4.983" transform="translate(12.885 12.885)"/></g><g transform="translate(5505.426 406.258)"><path class="an" d="M762.883,672.919a6.029,6.029,0,0,1-2.449,4.037,4.067,4.067,0,0,1-4.563.019,4.875,4.875,0,0,1-1.56-2.378,24.726,24.726,0,0,1-.774-5.136c-.259-2.3-3.215-5.933-2.071-8.11a2.426,2.426,0,0,1,1.049-1,3.331,3.331,0,0,1,.609-.269,4.966,4.966,0,0,1,1.346-.261,6.818,6.818,0,0,1,5.05,2.073,11.15,11.15,0,0,1,2.578,4.46,16.822,16.822,0,0,1,.489,1.744A12.051,12.051,0,0,1,762.883,672.919Z" transform="translate(-751.204 -659.817)"/><path class="am" d="M762.7,666.359l-5.32.3a3.9,3.9,0,0,1-4.114-3.671l-.151-2.635a3.338,3.338,0,0,1,.609-.269,4.969,4.969,0,0,1,1.346-.261,6.818,6.818,0,0,1,5.05,2.073A11.151,11.151,0,0,1,762.7,666.359Z" transform="translate(-751.802 -659.817)"/></g><g transform="translate(5467.667 316.335)"><path class="ao" d="M800.821,548.039c.765-1.586,1.588-3.256,2.431-4.8a3.874,3.874,0,0,1,5.531-1.36,107.637,107.637,0,0,1,22.363,19.607,2.311,2.311,0,0,1,.121,2.827c-.3.425-.623.85-.979,1.3a2.362,2.362,0,0,1-3.223.473A190.431,190.431,0,0,0,802,551.429,2.544,2.544,0,0,1,800.821,548.039Z" transform="translate(-728.903 -532.76)"/><path class="ap" d="M700.738,552.673a147.875,147.875,0,0,1,24.1-12.882,2.6,2.6,0,0,0,1.508-3c-1.091-4.518-.726-3.012-1.378-5.476-.885-3.342-3.645-2.572-6.079-1.478-4.1,1.84-15.383,9.075-22.1,17.729a2.694,2.694,0,0,0,.06,3.349,17.3,17.3,0,0,0,1.368,1.526A2,2,0,0,0,700.738,552.673Z" transform="translate(-696.23 -528.896)"/></g><path class="aq" d="M799.239,850.247c-31.469,0-49.26-2.143-54.833-8.021a7.056,7.056,0,0,1-2.031-5.75c.7-7.086,7.138-9.157,11.923-10.1,6.564-1.293,15.928-1.392,27.784-1.519q3.656-.039,7.643-.092c50.893-.745,63.992-3.76,67.313-5.09-2.108-.852-7.107-2.012-14.837-2.466-23.273-1.366-62.47-2.212-89.259-2.212-5.905,0-9.849-1.541-12.055-4.712-4.4-6.327-.273-10.595,4.1-22.384,3.215-8.67,2.418-51.978,2.418-59.07h3.741c0,7.763.679,51.391-2.651,60.371-3.845,10.37-7.82,14.224-4.535,18.947,1.455,2.091,4.394,3.107,8.984,3.107,26.841,0,66.138.849,89.478,2.219,8.829.518,19.335,2.025,19.241,6.267-.056,2.534-2.868,4.432-16.69,6.064-12.149,1.435-30.718,2.343-55.19,2.7q-3.992.058-7.658.091c-23.806.255-35.283.712-36.024,8.244a3.374,3.374,0,0,0,1.023,2.81c9.547,10.069,71.947,7.265,175.329,2.622l14.986-.672c144.992-6.483,522.671-4.558,524.565-4.492v3.712c-1.893-.065-379.557-1.96-524.4,4.517l-14.986.672C869.065,848.416,828.313,850.246,799.239,850.247Z" transform="translate(4758.042 -275.171)"/><path class="ar" d="M6.383,0h0a6.383,6.383,0,0,1,6.383,6.383v4.255a2.128,2.128,0,0,1-2.128,2.128H2.128A2.128,2.128,0,0,1,0,10.639V6.383A6.383,6.383,0,0,1,6.383,0Z" transform="translate(5513.831 455.818) rotate(180)"/><g transform="translate(4853.994 427.016)"><path class="aq" d="M445.614,715.012c-1.7-4.506-3.462-9.169-4.925-13.648-2.837-8.668-10.159-12.171-15.942-11.154-4.753.838-9.733,5.014-9.424,14.225l4.121-.137c-.185-5.585,2.061-9.335,6.024-10.029,3.929-.694,9.224,2.006,11.306,8.373,1.49,4.568,3.269,9.272,4.987,13.826,5.907,15.647,11.484,68.2,5.859,76.337-3.324,4.808-10.5,7.15-21.945,7.15-1.4,0-3.029-.041-4.753-.082-8.036-.2-18.985-.474-30.311,2.328a63.2,63.2,0,0,0-12.494,4.471c-16.574-1.916-37.729-2.479-62.325-2.479l-464.776,1.7v4.121l464.776-1.7c20.049,0,39.734.336,56.143,1.848a56.986,56.986,0,0,0-8.544,6.813c-.412.4-.824.81-1.236,1.229-5.412,5.557-4.664,9.994-3.084,12.735,3.908,6.779,17.8,10.412,31.025,10.412a58.819,58.819,0,0,0,14.19-1.6c8.579-2.17,13.394-6.422,13.545-11.986a12.721,12.721,0,0,0-3.846-9.472c-4.355-4.478-12.329-7.59-23.346-9.733-.007-.007-.014-.007-.028-.007-1.394-.268-2.83-.522-4.32-.762,1.724-.591,3.448-1.092,5.172-1.525,10.921-2.734,21.567-2.473,29.356-2.273,1.751.041,3.4.082,4.856.082,12.892,0,21.182-2.919,25.338-8.922C457.86,785.243,451.912,731.7,445.614,715.012ZM411.031,821.165a8.634,8.634,0,0,1,2.679,6.484c-.131,4.794-6.594,7.136-10.433,8.112-14.657,3.7-36.685-.027-40.634-6.881-.474-.817-1.909-3.311,2.466-7.8q1.968-2.009,4.032-3.729a52.262,52.262,0,0,1,9.781-6.45C394.258,812.765,405.921,815.917,411.031,821.165Z" transform="translate(148.984 -690.04)"/></g><path class="as" d="M578.362,858.929c1.49.24,2.926.495,4.32.762-1.985-.3-6.134-.914-12.494-1.882a63.2,63.2,0,0,1,12.494-4.471l.852,4.066C581.809,857.837,580.086,858.338,578.362,858.929Z" transform="translate(4810.907 -314.161)"/><path class="at" d="M564.278,865.67a52.261,52.261,0,0,0-9.781,6.449l-5.749-.378a56.977,56.977,0,0,1,8.544-6.813S562.348,865.423,564.278,865.67Z" transform="translate(4817.621 -317.791)"/><path class="au" d="M7.458,16.231V12.767H5.576v3.464a1.478,1.478,0,1,1-2.956,0V12.767H2.128A2.128,2.128,0,0,1,0,10.639V6.383a6.383,6.383,0,0,1,12.767,0v4.256a2.128,2.128,0,0,1-2.128,2.128h-.224v3.464a1.478,1.478,0,0,1-2.957,0Z" transform="translate(5414.18 436.87)"/><path class="av" d="M621.957,653.4l-13.3-22.748-9.977,1.422-20.988-17.287,19.232,25.552,11.149-1.043Z" transform="translate(4808.558 -239.458)"/><path class="av" d="M579.033,684.3l2.15,6.182-17.739,1.075,24.189,4.838-3.494-7.257h13.438Z" transform="translate(4813.019 -261.226)"/><path class="aw" d="M770.5,746.272c10.53-2.272,25.374-7.861,39.7-23.017a13.381,13.381,0,0,0,1.434-16.9c-5.785-8.1-16.336-3.71-16.336-3.71s-11.882,19.151-30.2,27.775Z" transform="translate(4749.871 -266.601)"/><path class="am" d="M763.264,758.194c3.971.071,6.193-.517,10.56-1.7a164.661,164.661,0,0,1-7.931-16.381c-1.264.676-2.466,1.322-3.7,1.907a23.616,23.616,0,0,0-5.573-3.327l-.122,5.6-.094.022,3.1,7.728Z" transform="translate(4752.593 -278.259)"/><g transform="translate(5501.618 466.052)"><path class="am" d="M753.242,746.874l-4.8.793a3.319,3.319,0,0,0-2.774,3.454l.2,3.66h0l9.772-.513-9.772.513h0l.7,3.288a2.972,2.972,0,0,0,2.619,2.346,69.78,69.78,0,0,0,12.935.172l-4.874-11.36h0l-4-2.352Z" transform="translate(-745.66 -746.874)"/><line class="ax" y1="0.393" x2="7.493" transform="translate(0.331 7.596)"/></g><path class="av" d="M793.847,697.486l24.952-8.477,6.608,7.609,27.182.683-31.268,6.713-7.742-8.09Z" transform="translate(4741.555 -260.641)"/><path class="av" d="M812.994,737.736l-4.825,4.422,15.105,9.362L799.685,744.3l6.518-4.731-11.83-6.375Z" transform="translate(4740.703 -276.539)"/></g><path class="h" d="M27.6,405.9c-1.688-15.612,17.179-34.364,40.675-51.786A120.631,120.631,0,0,1,54.2,352.245a100.367,100.367,0,0,1-27.416-9.419l46.354,7.745q2.032-1.455,4.093-2.892-1.839-.3-3.837-.684c-17.162-3.335-42.741-11.974-69.551-34.078L82.44,344.1c1.509-1.022,3.03-2.04,4.546-3.045C70.352,335.107,37.095,319.45,0,281.1l89.991,57.976c3.346-2.187,6.695-4.329,10-6.41-22.345-11.922-56.058-34.423-80.938-71.047l86.4,67.637q1.041-.645,2.073-1.281a222.762,222.762,0,0,1-54.838-64.734l58.949,62.214q1.581-.965,3.132-1.906c-8.276-8.927-18.524-22.524-28.444-42.462l32.117,40.241c2.647-1.6,5.2-3.131,7.643-4.6L82.322,232.2c28.617,33.48,42.1,62.863,48.393,81.746q2.051-1.235,3.952-2.388l-21.089-72.437c18.141,26.812,24.757,51.487,26.959,68.82q1.8-1.149,3.668-2.42l-2.832-40.661a104.45,104.45,0,0,1,7.266,37.571c6.858-4.881,14.492-10.705,23.281-16.906-5.507-8.27-12.4-18.278-12.4-18.278a67.594,67.594,0,0,1,17.414,14.794c1.03-.706,2.081-1.418,3.143-2.13-11.525-20.44-37.23-32.084-37.23-32.084s17.8-3.421,41.269,20.942c-26.473-72.314-60.586-93.134-60.586-93.134,26.982,7.308,47.635,50.247,67.018,97.527q3.83-2.366,7.921-4.728c-16.483-35.777-40.654-86.718-64.341-131.084,13.9,11.668,35.964,51.165,55.765,90.485-8.649-34.7-19.622-76.387-31.107-114.063,15.983,19.891,37.143,96.838,50.144,148.924l.6-.314c-6.972-33.022-23.691-109.523-42.1-174.35,17.753,22.9,40.733,119.567,51.747,169.589q.8-.376,1.61-.749c-7.1-38.581-13.184-76.507-8.965-103.3-13-31.449-26.113-44.343-26.113-44.343,11.692,6.284,20.842,18.486,28.253,34.644a53.154,53.154,0,0,1,3.151-8.246c-5.85-25.073-12.144-50.664-18.642-74.959,15.9,21.156,34.481,90.918,48.469,151.981C241.389,165.616,230.1,76.717,215.888,0c17.007,26.706,32.418,122.86,41.466,190.093,4.319-51.5,13.2-95.644,37.484-112.224,0,0-33.16,40.177-33.736,141.181,1.063,8.542,1.96,16.048,2.673,22.166q9.528-2.628,19.969-4.791c.122-3.2.285-6.865.495-11.036,2.811-57.754-15.033-81.763-15.033-81.763,17.34,13.056,18.422,52.085,18.308,92.047,1.436-.278,2.879-.547,4.342-.809-1.034-25.54-4.1-119.573,5.686-141.853-1.107,38-.216,80.894.669,109.037,2.7-36.984,7.515-83.544,15.228-97.79-4.4,38.062-7.2,81.256-8.726,109.344,9.55-33.92,21.91-72.516,31.439-83.929-11.285,35.249-22.049,75.513-29.026,102.8l.694-.092c6.539-30.849,14.34-59.329,28.331-71.236v3.028c-7.087,9.732-18.936,30.642-25.017,67.787q12.007-1.472,25.126-2.24l-.108,176.18ZM223.025,243.342q1.451,6.211,2.606,11.358,4.375-1.916,9-3.749-.122-1.14-.245-2.309c-3.862-36.493-11.171-64.7-18.974-85.886C213.936,181.812,214.9,208.557,223.025,243.342Zm-6.217-92.874c10.711,26.4,17.563,61.539,23.472,98.315q.654-.243,1.314-.484c-5.926-29.171-13.941-67.16-23.111-106.792C217.9,144.141,217.321,147.125,216.808,150.469Z" transform="translate(1029.164 362.409)"/><path class="h" d="M188.91,300.593H0V217a225.353,225.353,0,0,1,51.447,2.776l.135.015c-11.034-37.671-26.61-51.579-26.61-51.579,13.559,6.427,22.373,25.75,29.209,49.936-6.657-24.831-14.737-53.467-23.082-79.534,9.609,11.509,21.911,48.877,31.845,83.513.429.1.929.2,1.337.306l.1.024c-1.691-29.959-4.6-72.894-9-111.012,8.246,15.23,13.394,65,16.279,104.54.921-29.294,1.848-73.539.8-113.35-6.288-13.322-11.3-19.4-11.3-19.4,18.925,12.92,29.1,41.492,35.011,77.362a29.125,29.125,0,0,1,6.495-6.955,57.061,57.061,0,0,0-5.815,11.228c3.293,21.481,5.166,45.385,6.541,69.993l.43.172.086.034c.987-72.583,5.048-184.655,20.377-216.462-3.555,54.1-5.17,113.524-5.875,162.394C128.291,111.672,143.283,25.717,159.66,0c-15.213,82.1-27.287,177.26-33.219,227.5,15.007-65.467,34.911-140.076,51.834-162.639-6.922,25.962-13.617,53.308-19.849,80.08a58.959,58.959,0,0,1,3.316,8.6l.065.228c.017-.037.033-.075.051-.112,7.745-17.111,17.573-30.175,30.059-36.881-.462.463-14.2,14.2-27.836,47.223,3.765,24.58-.263,57.3-6.25,91.864a21.4,21.4,0,0,1,2.524.8l.133.04c12.719-55.957,34.1-140.749,51.083-162.59-16.416,57.805-31.562,124.4-40.463,165.325l-.006.027a5.4,5.4,0,0,0,1.276.2l.11.024.006-.024c13.757-53.413,33.18-119.312,48.21-138.041-12.255,40.117-23.932,84.512-33.18,121.625l-.12.471c.079-.157.157-.314.235-.471,21.041-41.968,44.511-84.051,59.426-96.536-20.233,38.037-40.927,80.581-57.344,115.612a1.969,1.969,0,0,1,.809.116c2.738.227,5.591.456,8.445.8,17.34-38.261,36.184-69.24,59.42-75.482-1.041.578-29.248,18.613-55.143,75.833l.111.009a2.282,2.282,0,0,1,.728.09c30.776-41.606,56.153-36.739,56.153-36.739S229.43,240.9,218.435,265.206l.072.009c2.615.342,5.228.57,7.843.908,9.973-12.657,20.713-18.365,20.713-18.365s-7.233,10.5-13.092,19.287l.143.019c27.611,3.466,55.221,8.2,75.565,14.092,5.567-18.062,19.12-25.075,19.12-25.075s-13.179,17.8-13.295,26.591q0,.175-.008.344l.008,0c.771.22,1.542.545,2.213.776,2.533-7.125,10.288-23.177,30.159-29.563-15.445,12.63-20.687,26.14-22.373,32.351,15.144-15.753,32.778-14.431,32.778-14.431s-20.579,8.209-25.32,15.607a10.773,10.773,0,0,1-1.614,2.019l.112.063c5.9,3.237,9.48,6.822,10.058,10.752Zm-35.629-46.135.021-.11c7.468-34.354,8.313-61.059,6.849-80.339-7.136,19.618-14.035,44.745-18.295,76.293l-.006.043C145.624,251.828,149.508,253.2,153.281,254.457Zm-16.859-6.237.217.087.015-.087c5.635-32.655,12.412-63.255,22.04-87.13l-.075-.5q-.854-5.121-1.708-9.236c-.009.035-.018.068-.027.1C148.8,186.21,141.643,219.811,135.751,248,135.974,248.1,136.2,248.108,136.422,248.22ZM97.114,232.5l.1.037a421.418,421.418,0,0,0-4.162-56.84c-3.6,12.12-6.829,29.542-6.774,53C89.964,229.96,93.653,231.228,97.114,232.5ZM83.241,227.64l.039.013c.544-23.242,2.473-44.537,8.649-59.131-4.439-26.631-10.977-46.393-16.888-60.154,5.554,26.033,5.155,82.409,4.227,118.026C80.631,226.845,81.991,227.187,83.241,227.64Z" transform="translate(-1 467.627)"/></g></svg>